<svg width="160" height="148" viewBox="0 0 160 148" fill="none" xmlns="http://www.w3.org/2000/svg">
  <path d="M130 65.0437C130 89.6204 112 98.0437 79.5 116.044C48 116.044 25 112.62 25 88.0437C25 63.4671 39.5 45.0437 73 36.0437C99.5 23.0437 136 36.0437 130 65.0437Z" fill="#FF7A57"/>
  <path d="M52.4688 89.6375C58.5729 89.1792 63.25 88.4812 66.5 87.5437C66.6458 86.5854 66.7188 85.5021 66.7188 84.2937C66.7188 83.0646 66.6875 81.9292 66.625 80.8875L55.5312 76.8562C54.7812 76.5854 54.2188 76.0958 53.8438 75.3875C53.4688 74.6583 53.1875 73.7104 53 72.5437C52.5833 69.9812 52.375 68.0229 52.375 66.6687C52.375 64.5229 52.4271 62.9708 52.5312 62.0125C52.6979 60.3042 53.7917 59.1479 55.8125 58.5437C60.5417 56.8354 66.1042 55.4292 72.5 54.325L74.4062 61.8562L70.4062 62.4187C66.4479 63.0021 63.1562 63.6271 60.5312 64.2937C60.4479 64.8354 60.4062 65.5437 60.4062 66.4187C60.4062 68.2104 60.4479 69.6167 60.5312 70.6375L72.0625 75.7C73.3333 76.2417 74.1875 77.1896 74.625 78.5437C74.75 78.9396 74.8125 79.2208 74.8125 79.3875C74.8125 79.5542 74.7917 79.9187 74.75 80.4812C74.7292 81.0229 74.6875 81.7521 74.625 82.6687C74.4583 85.1271 74.25 87.2417 74 89.0125C73.75 90.7625 73.1354 91.9604 72.1562 92.6062C71.1979 93.2312 70.0208 93.7937 68.625 94.2937C67.25 94.7729 65.7604 95.2104 64.1562 95.6062C61.5521 96.2104 58.1042 96.825 53.8125 97.45L52.4688 89.6375Z" fill="white"/>
  <path d="M108.531 62.7625C106.094 62.8667 103.125 63.0542 99.625 63.325L99.9062 76.325L99.1875 96.0437L92.2188 96.6062L91.8438 63.6062C90.0312 63.6479 88.3542 63.7104 86.8125 63.7937C85.2917 63.8771 84 63.9187 82.9375 63.9187L83.5 57.1375C90.7083 56.2 98.7812 55.7312 107.719 55.7312L108.531 62.7625Z" fill="white"/>
  </svg>
  