<svg width="556" height="524" viewBox="0 0 556 524" fill="none" xmlns="http://www.w3.org/2000/svg">
  <ellipse cx="332.5" cy="308" rx="150.5" ry="82" fill="#424445"/>
  <path d="M463.254 205.964C463.254 205.964 488.084 87.3178 365.117 36.6591C242.15 -14.0041 174.089 224.343 174.089 224.343C174.089 224.343 149.779 324.117 199.088 344.416L344.198 193.079L463.254 205.964Z" fill="#424445"/>
  <path d="M237 315.849C237 315.849 128.818 313.521 64.9785 157L46 160.569C46 160.569 67.2321 345.271 226.101 398L237 315.849Z" fill="#FFCCC3"/>
  <path d="M78.3371 159.838C65.8717 166.936 50.4319 145.677 59.8062 135.906C71.0414 124.721 71.0162 145.603 80.1791 140.716C89.3389 135.832 80.7122 119.744 73.9559 117.191C63.2663 113.191 61.8532 113.782 54.5828 120.483C53.1319 101.348 45.5523 74.9081 38.6667 85.3698C33.3267 93.4848 41.3478 115.46 43.5684 125.296C41.3163 121.393 30.6677 96.2382 23.9997 103.369C19.7037 108.995 33.9701 136.051 36.2191 139.957C36.2506 140.002 36.2758 140.06 36.3074 140.109C34.4685 138.701 32.9576 137.617 32.1659 137.049C26.8953 133.96 15.5465 123.075 15.0039 133.679C14.6917 144.405 33.027 155.112 42.0953 161.087C43.3129 165.503 45.1328 169.263 48.6908 171.11C59.3551 162.724 61.4842 172.036 71.9971 174.99C80.974 178.218 88.2728 174.748 90.9192 165.651C95.7609 144.844 70.0542 139.244 78.3371 159.838Z" fill="#FFCCC3"/>
  <path d="M247.148 209.722C247.148 209.722 236.648 156.32 220.775 169.933C204.898 183.549 210.926 224.849 242.809 221.376L247.148 209.722Z" fill="#FFCCC3"/>
  <path d="M270 340C286.513 340.359 308.648 320.297 305 304H394C395.715 318.317 422.67 338.557 431 340L403 372L333 420L276 360L270 340Z" fill="#FFCCC3"/>
  <path d="M217 154.66C217 154.66 225.411 38.6195 362.096 23.6763C498.781 8.72846 500 246.551 500 246.551C500 246.551 496.344 345.022 441.538 351L339.233 173.599L217 154.66Z" fill="#424445"/>
  <path d="M468.569 320.156C472.056 310.816 475.632 297.409 479.742 277.145C482.7 262.562 488.12 235.568 490.13 212.519C490.43 209.094 490.371 206.401 489.919 207.607C487.43 214.256 483.471 240.817 480.639 255.383C476.948 274.372 473.161 291.538 469.663 305.407C468.495 310.019 467.417 323.249 468.569 320.156Z" fill="#4B4E50"/>
  <ellipse cx="346.5" cy="191.025" rx="105.5" ry="136.834" fill="#FFCCC3"/>
  <path d="M242.246 205.843C242.246 205.843 220.548 54.9832 336.436 62.5752C452.328 70.1641 452.328 176.927 452.328 176.927C452.328 176.927 364.073 299.775 242.246 205.843Z" fill="#FFCCC3"/>
  <path d="M442.593 206.695C442.593 206.695 455.042 154.075 468.71 169.857C482.378 185.642 474.649 226.605 445.896 219.026L442.593 206.695Z" fill="#FFCCC3"/>
  <path d="M298.972 97.5356C305.376 92.4131 313.099 93.4483 319.928 96.9116C326.757 100.37 333.048 106.068 339.722 110.214C353.55 118.8 369.022 120.522 383.465 115.085C393.005 111.491 402.298 104.825 412.103 105.217C420.707 105.556 428.812 111.317 436.65 116.976C445.43 123.317 454.214 129.659 463 136C448.445 101.091 426.439 74.2015 401.49 60.8414C376.538 47.4813 348.803 47.7329 323.948 61.5428C313.591 67.2941 303.34 75.8606 297 90.101" fill="#424445"/>
  <path d="M227.9 135.891C231.226 128.612 238.516 124.565 246.122 122.658C253.725 120.748 261.871 120.636 269.649 119.271C285.765 116.442 300.211 108.103 310.492 95.6975C317.283 87.5012 322.459 77.4405 331.295 71.6974C339.047 66.6542 348.824 65.4735 358.319 64.3899C368.956 63.1771 379.595 61.9626 390.237 60.7461C361.512 46.7495 329.853 42.5753 301.747 49.0779C273.638 55.5823 249.26 72.7209 233.591 96.9919C227.059 107.104 221.902 118.998 222.778 132.22" fill="#424445"/>
  <path d="M324.883 221.27V164.472L310.623 195.486L304.952 212.829L305.81 228.304L311.481 232.7L318.525 229.359L324.883 221.27Z" fill="#FFCCC3"/>
  <path d="M327.915 190.879C325.22 195.179 322.61 199.511 320.368 203.945C318.719 207.204 316.304 210.211 314.964 213.569C313.721 216.686 312.944 221.463 317.32 223.369C317.553 223.471 317.811 223.562 318.078 223.54C318.321 223.518 319.831 223.017 320.028 222.905C321.818 221.894 323.049 220.496 324.664 219.346C325.096 219.037 325.866 218.77 326.182 219.153C326.372 219.382 326.224 219.681 326.065 219.923C324.922 221.656 323.296 223.197 321.329 224.407C319.97 225.243 318.283 225.948 316.571 225.726C314.89 225.509 313.573 224.419 312.921 223.197C310.495 218.643 313.414 213.47 315.339 209.163C318.241 202.666 322.377 196.494 326.431 190.338C326.903 189.622 328.366 190.16 327.915 190.879Z" fill="#D46C6C"/>
  <path d="M364.992 168.443C365.995 171.212 364.421 174.234 361.475 175.189C358.529 176.145 356.873 174.169 355.863 171.4C354.86 168.63 356.226 165.676 359.169 164.721C362.118 163.766 363.989 165.673 364.992 168.443Z" fill="#303030"/>
  <path d="M300.817 173.126C298.821 175.291 295.297 175.408 292.951 173.384C290.601 171.36 291.55 169.026 293.547 166.86C295.543 164.694 298.896 164.433 301.246 166.457C303.593 168.481 302.814 170.96 300.817 173.126Z" fill="#303030"/>
  <path d="M378.518 149.9C372.847 150.065 367.763 149.949 362.412 149.623C357.399 149.316 351.11 149.537 349.742 146.97C349.17 145.907 349.566 144.238 352.212 143.267C358.533 140.945 362.632 141.74 368.397 142.3C373.831 142.83 378.695 143.515 383.563 144.544C388.271 145.535 384.017 149.739 378.518 149.9Z" fill="#424445"/>
  <path d="M285.975 140.151C293.089 139.297 300.544 138.703 307.884 139.156C315.14 139.608 315.33 145.255 307.971 145.776C300.613 146.296 293.172 145.798 286.04 145.006C280.753 144.414 280.577 140.8 285.975 140.151Z" fill="#424445"/>
  <path d="M340.389 269.408C346.628 265.812 351.104 259.192 351.284 252.197C351.312 251.161 351.243 250.102 350.849 249.137C349.644 246.171 345.755 245.073 342.478 245.548C339.203 246.022 336.216 247.626 333.028 248.508C329.29 249.534 325.271 249.537 321.553 248.511C319.364 247.907 317.276 246.955 315.03 246.568C312.787 246.183 310.239 246.471 308.605 248.027C307.015 249.544 306.649 251.887 306.731 254.037C307.371 271.477 326.338 277.51 340.389 269.408Z" fill="#A04340"/>
  <path d="M381.958 200.344C381.421 203.804 375.328 205.683 368.354 204.543C361.373 203.404 356.147 199.673 356.683 196.212C357.222 192.752 366.474 191.39 373.454 192.532C380.434 193.672 382.497 196.884 381.958 200.344Z" fill="#FFB0A0"/>
  <path d="M268.932 196.834C269.421 193.364 275.489 191.398 282.482 192.437C289.475 193.48 294.749 197.134 294.26 200.604C293.771 204.071 284.539 205.569 277.543 204.526C270.55 203.487 268.443 200.301 268.932 196.834Z" fill="#FFB0A0"/>
  <path d="M327.588 55.367C340.17 54.9888 352.091 53.3121 365.804 54.5653C380.624 55.9199 395.991 60.6594 411.354 64.4027C412.129 64.5918 412.016 63.9473 411.281 63.714C378.044 53.1142 353.86 51.841 326.585 54.2085C325.586 54.2945 326.57 55.398 327.588 55.367Z" fill="#4B4E50"/>
  <path d="M326.678 72.0037C341.249 81.0339 356.483 84.5812 374.287 85.379C374.539 85.3909 374.532 85.7491 374.279 85.7733C357.02 87.4185 339.318 81.8671 326.191 72.5635C325.8 72.288 326.269 71.751 326.678 72.0037Z" fill="#4B4E50"/>
  <path d="M378.673 85.7907C393.943 79.4027 409.364 78.082 427.076 79.5821C427.327 79.6028 427.353 79.2763 427.105 79.2227C410.159 75.5698 392.108 78.4039 378.242 85.2208C377.829 85.4224 378.244 85.9692 378.673 85.7907Z" fill="#4B4E50"/>
  <path d="M381.043 33.0713C400.688 39.4351 417.337 49.9312 435.199 62.2237C435.726 62.5855 436.056 61.9579 435.593 61.5366C419.739 47.0318 399.721 37.6964 380.993 32.0439C380.339 31.8475 380.407 32.8666 381.043 33.0713Z" fill="#4B4E50"/>
  <path d="M308.814 47.1411C298.321 49.807 285.313 54.1088 277.352 62.0182C276.731 62.6401 277.466 63.9252 278.298 63.5238C283.224 61.144 287.648 57.7575 292.577 55.3157C297.982 52.63 303.596 50.5607 309.383 48.945C310.55 48.6194 309.972 46.8464 308.814 47.1411Z" fill="#4B4E50"/>
  <path d="M309.239 70.1987C295.429 73.6648 273.28 83.0615 252.81 98.5434C250.879 100.004 250.955 101.281 252.677 100.29C261.582 95.1727 270.669 89.0978 279.371 84.5707C289.493 79.3063 298.534 75.5268 306.582 73.1979C308.29 72.7036 310.914 69.7775 309.239 70.1987Z" fill="#4B4E50"/>
  <path d="M463.991 161.688C463.112 146.142 461.477 126.202 453.723 109.555C453.021 108.05 451.463 107.998 451.701 109.49C452.947 117.444 455.91 125.863 457.599 133.947C459.485 142.956 460.639 151.744 461.279 160.384C461.42 162.362 464.104 163.692 463.991 161.688Z" fill="#4B4E50"/>
  <path d="M439.94 332.026C443.899 323.134 448.159 310.304 453.309 290.848C457.015 276.847 463.82 250.927 467.024 228.671C467.502 225.364 467.583 222.75 467.07 223.898C464.245 230.227 458.917 255.795 455.337 269.786C450.672 288.026 446.005 304.492 441.798 317.775C440.395 322.192 438.631 334.97 439.94 332.026Z" fill="#4B4E50"/>
  <path d="M459.647 495.195L221 503L205 460C205.152 441.465 205.779 418.408 212 398.899L199 392L212 312L252 320L272 331.693C274.823 341.47 288.194 357.861 297.771 363C305.643 363.98 311.969 366.24 318.294 368.5L338.817 374H372.854C387.075 368.754 397.992 366.573 401.886 357C405.781 347.427 416.903 343 416.903 326C447.937 332.597 426.526 329.514 442.514 331.693C451.692 332.944 465.694 336.708 465.694 336.708C488.914 362.163 497.023 375.705 505 398.899L442.514 428.992L459.647 495.195Z" fill="#FFF6E9"/>
  <mask id="mask0_1_2" style="mask-type:luminance" maskUnits="userSpaceOnUse" x="211" y="224" width="6" height="4">
  <path d="M211.764 224.315H216.814V227.885H211.764V224.315Z" fill="white"/>
  </mask>
  <g mask="url(#mask0_1_2)">
  <g opacity="0.220001">
  <path d="M215.136 224.323C213.947 224.423 213.042 224.375 212.124 225.204C211.645 225.637 211.645 226.563 212.124 226.996C213.042 227.829 213.947 227.777 215.136 227.88C217.369 228.068 217.376 224.133 215.136 224.323Z" fill="#303030"/>
  </g>
  </g>
  <mask id="mask1_1_2" style="mask-type:luminance" maskUnits="userSpaceOnUse" x="197" y="241" width="4" height="5">
  <path d="M197.403 241.81H200.797V245.403H197.403V241.81Z" fill="white"/>
  </mask>
  <g mask="url(#mask1_1_2)">
  <g opacity="0.220001">
  <path d="M199.1 245.404C201.359 245.404 201.362 241.811 199.1 241.811C196.842 241.811 196.836 245.404 199.1 245.404Z" fill="#303030"/>
  </g>
  </g>
  <mask id="mask2_1_2" style="mask-type:luminance" maskUnits="userSpaceOnUse" x="435" y="176" width="5" height="4">
  <path d="M435.977 176.335H439.046V179.586H435.977V176.335Z" fill="white"/>
  </mask>
  <g mask="url(#mask2_1_2)">
  <g opacity="0.220001">
  <path d="M437.513 179.588C439.557 179.588 439.561 176.334 437.513 176.334C435.47 176.334 435.463 179.588 437.513 179.588Z" fill="#303030"/>
  </g>
  </g>
  <mask id="mask3_1_2" style="mask-type:luminance" maskUnits="userSpaceOnUse" x="476" y="459" width="4" height="5">
  <path d="M476.515 459.61H479.764V463.051H476.515V459.61Z" fill="white"/>
  </mask>
  <g mask="url(#mask3_1_2)">
  <g opacity="0.220001">
  <path d="M478.139 463.052C480.303 463.052 480.306 459.611 478.139 459.611C475.972 459.611 475.972 463.052 478.139 463.052Z" fill="#303030"/>
  </g>
  </g>
  <mask id="mask4_1_2" style="mask-type:luminance" maskUnits="userSpaceOnUse" x="491" y="475" width="4" height="4">
  <path d="M491.624 475.079H494.588V478.219H491.624V475.079Z" fill="white"/>
  </mask>
  <g mask="url(#mask4_1_2)">
  <g opacity="0.220001">
  <path d="M493.106 478.22C495.081 478.22 495.084 475.08 493.106 475.08C491.132 475.08 491.129 478.22 493.106 478.22Z" fill="#303030"/>
  </g>
  </g>
  <mask id="mask5_1_2" style="mask-type:luminance" maskUnits="userSpaceOnUse" x="486" y="449" width="1" height="1">
  <path d="M486.615 449.216H486.766V449.378H486.615V449.216Z" fill="white"/>
  </mask>
  <g mask="url(#mask5_1_2)">
  <g opacity="0.220001">
  <path d="M486.69 449.377C486.791 449.377 486.791 449.216 486.69 449.216C486.589 449.216 486.589 449.377 486.69 449.377Z" fill="#303030"/>
  </g>
  </g>
  <path d="M230.165 315.184C229.087 307.051 228.303 295.522 227.806 278.227C227.449 265.781 226.817 242.747 227.673 223.347C227.8 220.464 228.057 218.227 228.197 219.277C228.968 225.068 228.857 247.591 229.148 260.011C229.527 276.202 230.111 290.883 230.816 302.79C231.052 306.749 230.521 317.878 230.165 315.184Z" fill="#4B4E50"/>
  <path d="M501.699 403L441 430.399L462.524 497.075L537.862 497.84C537.862 497.84 520.448 437.006 501.699 403Z" fill="#FFCCC3"/>
  <path d="M476.991 161.688C476.112 146.142 474.477 126.202 466.723 109.555C466.021 108.05 464.463 107.998 464.701 109.49C465.947 117.444 468.91 125.863 470.599 133.946C472.485 142.955 473.639 151.744 474.279 160.384C474.42 162.362 477.104 163.691 476.991 161.688Z" fill="#4B4E50"/>
  <path d="M199.702 292.754C198.108 282.742 197.689 268.811 198.745 248.151C199.506 233.285 200.985 205.781 205.667 183.104C206.361 179.734 207.293 177.175 207.501 178.468C208.643 185.597 205.393 212.235 204.474 227.048C203.274 246.358 202.777 263.952 202.949 278.302C203.012 283.075 200.226 296.069 199.702 292.754Z" fill="#4B4E50"/>
  </svg>
  